<?xml version="1.0" encoding="utf-8"?>
<!-- Generator: Adobe Illustrator 16.0.0, SVG Export Plug-In . SVG Version: 6.00 Build 0)  -->
<!DOCTYPE svg PUBLIC "-//W3C//DTD SVG 1.1//EN" "http://www.w3.org/Graphics/SVG/1.1/DTD/svg11.dtd">
<svg version="1.1" id="Layer_1" xmlns="http://www.w3.org/2000/svg" xmlns:xlink="http://www.w3.org/1999/xlink" x="0px" y="0px"
	 width="270.687px" height="77.578px" viewBox="0 0 270.687 77.578" enable-background="new 0 0 270.687 77.578"
	 xml:space="preserve">
<g>
	<path fill="#F38630" d="M164.925,23.14h-15.25V7.86c0-4.34-3.512-7.86-7.84-7.86h-15.391c-4.32,0-7.84,3.52-7.84,7.86v15.28h-15.25
		c-4.32,0-7.84,3.52-7.84,7.86v15.42c0,4.33,3.52,7.86,7.84,7.86h15.25v15.281c0,4.33,3.52,7.859,7.84,7.859h15.391
		c4.328,0,7.84-3.529,7.84-7.859V54.28h15.25c4.318,0,7.84-3.53,7.84-7.86V31C172.765,26.66,169.244,23.14,164.925,23.14z
		 M167.345,46.42c0,1.34-1.08,2.43-2.42,2.43h-20.67v20.71c0,1.34-1.08,2.43-2.42,2.43h-15.391c-1.34,0-2.42-1.09-2.42-2.43V48.85
		h-20.67c-1.33,0-2.42-1.09-2.42-2.43V31c0-1.34,1.09-2.43,2.42-2.43h20.67V7.86c0-1.34,1.08-2.43,2.42-2.43h15.391
		c1.34,0,2.42,1.09,2.42,2.43v20.71h20.67c1.34,0,2.42,1.09,2.42,2.43V46.42z"/>
	<polygon fill="#F38630" points="114.975,31.8 114.975,45.62 104.135,38.71 	"/>
	<polygon fill="#F38630" points="141.035,57.92 134.145,68.779 127.244,57.92 	"/>
	<polygon fill="#F38630" points="164.144,38.71 153.304,45.62 153.304,31.8 	"/>
	<polygon fill="#F38630" points="141.035,19.5 127.244,19.5 134.145,8.64 	"/>
</g>
<path id="rect3445" fill="#F38630" d="M210.654,0.289c-5.955,0-10.824,4.895-10.824,10.849
	c-0.023,1.598,1.254,2.912,2.852,2.934s2.912-1.254,2.934-2.852c0-0.026,0-0.054,0-0.082c0-2.848,2.188-5.063,5.039-5.063h39.598
	c2.85,0,5.064,2.216,5.064,5.063c-0.023,1.598,1.254,2.912,2.852,2.934c1.6,0.022,2.912-1.254,2.936-2.852c0-0.026,0-0.054,0-0.082
	c0-5.954-4.895-10.849-10.852-10.849H210.654z M201.068,16.976c-5.953,0-10.822,4.896-10.822,10.85v38.929
	c0,5.955,4.869,10.824,10.822,10.824h58.768c5.957,0,10.852-4.869,10.852-10.824V27.825c0-5.954-4.895-10.85-10.852-10.85H201.068z
	 M201.068,22.763h58.768c2.85,0,5.064,2.214,5.064,5.062v38.929c0,2.849-2.215,5.037-5.064,5.037h-58.768
	c-2.848,0-5.035-2.188-5.035-5.037V27.825C196.033,24.977,198.22,22.763,201.068,22.763z M209.566,29.892
	c-1.475,0.172-2.578,1.434-2.555,2.919v11.571h-4.393c-1.598-0.021-2.912,1.255-2.934,2.853c-0.023,1.598,1.254,2.911,2.854,2.935
	c0.025,0,0.053,0,0.08,0h55.668c1.598,0.023,2.912-1.255,2.934-2.853c0.023-1.597-1.254-2.912-2.85-2.935c-0.029,0-0.057,0-0.084,0
	h-4.391V32.812c0.025-1.599-1.25-2.914-2.85-2.938c-0.127-0.002-0.252,0.005-0.379,0.019c-1.477,0.172-2.582,1.434-2.559,2.919
	v11.571h-7.361l-3.254-12.089c-0.316-1.266-1.436-2.164-2.74-2.195c-1.598-0.034-2.92,1.233-2.953,2.832
	c-0.006,0.292,0.031,0.582,0.113,0.862l2.814,10.59h-8.809V32.812c0.025-1.599-1.25-2.914-2.85-2.938
	c-0.125-0.002-0.254,0.004-0.381,0.019c-1.475,0.172-2.58,1.434-2.557,2.919v11.571h-7.336V32.812
	c0.025-1.599-1.25-2.914-2.848-2.938C209.82,29.871,209.693,29.877,209.566,29.892z"/>
<g>
	<g>
		<path fill="#F38630" d="M69.939,64.21c0,1.3-1.06,2.36-2.36,2.36h-18.11c-1.31,0-2.37-1.061-2.37-2.36s1.06-2.36,2.37-2.36h18.11
			C68.879,61.85,69.939,62.91,69.939,64.21z"/>
		<path fill="#F38630" d="M44.579,56.95c0,1.3-1.06,2.359-2.36,2.359h-18.12c-1.3,0-2.36-1.06-2.36-2.359c0-1.3,1.06-2.36,2.36-2.36
			h18.12C43.519,54.59,44.579,55.65,44.579,56.95z"/>
		<path fill="#F38630" d="M44.579,49.69c0,1.3-1.06,2.36-2.36,2.36h-18.12c-1.3,0-2.36-1.06-2.36-2.36c0-1.3,1.06-2.36,2.36-2.36
			h18.12C43.519,47.33,44.579,48.39,44.579,49.69z"/>
		<path fill="#F38630" d="M44.579,42.43c0,1.3-1.06,2.36-2.36,2.36h-18.12c-1.3,0-2.36-1.06-2.36-2.36c0-1.31,1.06-2.36,2.36-2.36
			h18.12C43.519,40.07,44.579,41.12,44.579,42.43z"/>
		<path fill="#F38630" d="M44.579,35.17c0,1.3-1.06,2.36-2.36,2.36h-18.12c-1.3,0-2.36-1.06-2.36-2.36c0-1.3,1.06-2.36,2.36-2.36
			h18.12C43.519,32.81,44.579,33.87,44.579,35.17z"/>
		<path fill="#F38630" d="M69.939,17.49c0,1.3-1.06,2.36-2.36,2.36h-43.48c-1.3,0-2.36-1.06-2.36-2.36c0-1.3,1.06-2.36,2.36-2.36
			h43.48C68.879,15.13,69.939,16.19,69.939,17.49z"/>
		<path fill="#F38630" d="M74.829,0.25h-57.98c-1.3,0-2.36,1.06-2.36,2.36v12.54h-8.5c-3.3,0-5.99,2.68-5.99,5.98v46.7
			c0,5.3,4.31,9.61,9.61,9.61h57.97c5.3,0,9.61-4.311,9.61-9.61V2.61C77.189,1.31,76.129,0.25,74.829,0.25z M14.489,67.83
			c0,2.7-2.19,4.89-4.88,4.89c-2.7,0-4.89-2.189-4.89-4.89v-46.7c0-0.7,0.57-1.26,1.27-1.26c0.69,0,1.26,0.56,1.26,1.26v39.45
			c0,1.31,1.06,2.36,2.36,2.36c1.3,0,2.36-1.051,2.36-2.36V21.13c0-0.43-0.05-0.85-0.13-1.26h2.65V67.83z M72.469,67.83
			c0,2.7-2.19,4.89-4.89,4.89h-49.7c0.87-1.47,1.34-3.16,1.34-4.89V4.97h53.25V67.83z"/>
		<path fill="#F38630" d="M67.579,25.55h-18.11c-1.31,0-2.37,1.06-2.37,2.36v14.52c0,1.3,1.06,2.36,2.37,2.36h18.11
			c1.3,0,2.36-1.06,2.36-2.36V27.91C69.939,26.61,68.879,25.55,67.579,25.55z M65.219,30.27v9.8h-13.39v-9.8H65.219z"/>
		<path fill="#F38630" d="M44.579,64.21c0,1.3-1.06,2.36-2.36,2.36h-18.12c-1.3,0-2.36-1.061-2.36-2.36s1.06-2.36,2.36-2.36h18.12
			C43.519,61.85,44.579,62.91,44.579,64.21z"/>
		<path fill="#F38630" d="M69.939,56.95c0,1.3-1.06,2.359-2.36,2.359h-18.11c-1.31,0-2.37-1.06-2.37-2.359
			c0-1.3,1.06-2.36,2.37-2.36h18.11C68.879,54.59,69.939,55.65,69.939,56.95z"/>
		<path fill="#F38630" d="M69.939,49.69c0,1.3-1.06,2.36-2.36,2.36h-18.11c-1.31,0-2.37-1.06-2.37-2.36c0-1.3,1.06-2.36,2.37-2.36
			h18.11C68.879,47.33,69.939,48.39,69.939,49.69z"/>
		<path fill="#F38630" d="M69.939,10.26c0,1.3-1.06,2.36-2.36,2.36h-43.48c-1.3,0-2.36-1.06-2.36-2.36c0-1.3,1.06-2.36,2.36-2.36
			h43.48C68.879,7.9,69.939,8.96,69.939,10.26z"/>
		<path fill="#F38630" d="M44.579,27.91c0,1.3-1.06,2.36-2.36,2.36h-18.12c-1.3,0-2.36-1.06-2.36-2.36c0-1.3,1.06-2.36,2.36-2.36
			h18.12C43.519,25.55,44.579,26.61,44.579,27.91z"/>
	</g>
</g>
</svg>
